<svg xmlns="http://www.w3.org/2000/svg" viewBox="0 0 694.22 575.92"><defs><style>.cls-1{isolation:isolate;}.cls-2{fill:#74c080;}.cls-3{fill:#8ebdf1;}.cls-4{fill:#408fec;}.cls-5{mix-blend-mode:multiply;opacity:0.1;}.cls-6{fill:#fa9f47;}.cls-7{fill:#fbc595;}</style></defs><g class="cls-1"><g id="Layer_2" data-name="Layer 2"><g id="main_page" data-name="main page"><g id="logo"><g id="Layer_5" data-name="Layer 5"><path class="cls-2" d="M515.55,554.32l-2.93,1.19c-1.72.68-3.44,1.35-5.17,2-1.2.45-2.4.9-3.61,1.33q-12.37,4.42-25.36,7.81a290.73,290.73,0,0,1-43.62,7.83c-1.23.12-2.46.24-3.68.34a5.9,5.9,0,0,1-.59.06l-2.09.16-2.37.18-.21,0c-1.08.07-2.17.15-3.26.21l-2.9.15-1.61.08-3,.11H415q-4.26.13-8.51.14h-.38c-2.84,0-5.68,0-8.51-.14h-.17l-3-.11-1.15-.06-.46,0-1.18,0-1.73-.11-3.15-.21L384,575l-1.9-.15-1.36-.12-3-.28h-.14a284.22,284.22,0,0,1-48.89-9.21q-7.87-2.21-15.57-4.87l-2.92-1c-1.43-.5-2.86-1-4.28-1.55-1.21-.44-2.41-.9-3.61-1.37l-2.52-1a289.35,289.35,0,0,1-71-40.81l47.76-82.72,19.56-33.88a30,30,0,0,0-26-45H184.52c-.66,0-1.32,0-2,.06a30,30,0,0,0-23.75,14.49,30,30,0,0,0-25.71-14.55h-7.25a287.4,287.4,0,0,1-7.42-56.86q-.12-4-.12-8.05c0-1,0-2.09,0-3.14A286.54,286.54,0,0,1,134,194.46l0-.05c.51-1.48,1-2.95,1.55-4.41.06-.15.11-.3.16-.45.52-1.43,1.05-2.85,1.59-4.27s1-2.6,1.52-3.89A289.41,289.41,0,0,1,196.24,91c1.64-1.75,3.3-3.49,5-5.2,1-1,2-2,3.05-3s2-2,3-2.91,2.24-2.13,3.37-3.18l2.45-2.24c1.61-1.46,3.24-2.89,4.88-4.31Q228.41,61.08,239.75,53a286.19,286.19,0,0,1,60-32.55l1-.4,2.34-.91,2.28-.86L308.89,17Q321.16,12.63,334,9.28q7.29-1.89,14.6-3.38c141.87-29.12,283.24,52.2,329.9,188.52q3.59,10.46,6.41,21.32t4.75,21.74C713.7,371.38,640.11,503.42,515.55,554.32Z"/><path class="cls-3" d="M678.55,194.42l11.16,43.06C716,384.17,625.15,528.63,478.49,566.64a286.63,286.63,0,0,1-149.76-1.39,26.17,26.17,0,0,1,18.77-18.74l188.23-48.78a26.17,26.17,0,0,0-13.13-50.67l-94.13,24.39a26.18,26.18,0,0,1-31.9-18.76,26.17,26.17,0,0,0-31.9-18.77l-21.37,5.54a26.17,26.17,0,1,1-13.13-50.67l11.66-3a26.17,26.17,0,0,0-13.13-50.67l-8.51,2.21a26.16,26.16,0,0,1-31.89-18.77,26.19,26.19,0,0,0-31.91-18.77l-21.12,5.48a26.18,26.18,0,0,1-13.13-50.68l185.08-48a26.17,26.17,0,0,0-13.13-50.67L278.86,185.8a26.18,26.18,0,0,1-13.13-50.68l14.65-3.79a26.18,26.18,0,0,0-13.13-50.68l-51,13.23a26.07,26.07,0,0,1-20-2.86A286.27,286.27,0,0,1,334,9.28C480.7-28.73,630.28,53.41,678.55,194.42Z"/><path class="cls-4" d="M685,215.73q2.82,10.88,4.76,21.75C716,384.17,625.15,528.63,478.49,566.64a287.32,287.32,0,0,1-86.9,8.9,26.17,26.17,0,0,1,12.17-43.61L592,483.15a26.18,26.18,0,0,0-13.13-50.68l-94.13,24.4a26.18,26.18,0,0,1-31.9-18.76,26.16,26.16,0,0,0-31.9-18.77l-21.37,5.53a26.17,26.17,0,0,1-13.13-50.67l11.66-3A26.17,26.17,0,0,0,385,320.51l-8.51,2.2A26.17,26.17,0,0,1,344.56,304a26.17,26.17,0,0,0-31.9-18.77l-21.12,5.47A26.17,26.17,0,1,1,278.41,240l185.08-48a26.17,26.17,0,1,0-13.13-50.67L335.13,171.21A26.17,26.17,0,1,1,322,120.54l14.65-3.8a26.17,26.17,0,0,0-13.13-50.67l-51,13.23a26.18,26.18,0,0,1-31.9-18.77,25.87,25.87,0,0,1-.82-7.52A287.17,287.17,0,0,1,334,9.28c146.66-38,296.24,44.13,344.51,185.14Q682.12,204.86,685,215.73Z"/><path class="cls-5" d="M348.81,5.79l-.17.11A286.84,286.84,0,0,0,228,157.1q-3.58,10.46-6.41,21.33t-4.75,21.73a286.26,286.26,0,0,0,14.36,152.9H184.52c-.66,0-1.32,0-2,.06a30,30,0,0,0-23.75,14.49,30,30,0,0,0-25.71-14.55h-7.32a285.75,285.75,0,0,1-7.35-56.86q-.12-4-.12-8.05c0-1,0-2.09,0-3.14a287.18,287.18,0,0,1,4.5-47.53q2-10.87,4.76-21.74T134,194.41c.51-1.48,1-2.95,1.55-4.41.06-.15.11-.3.16-.45.52-1.43,1.05-2.85,1.59-4.27s1-2.6,1.52-3.89a285.67,285.67,0,0,1,62.41-95.56c1-1,2-2,3.05-3s2-2,3-2.91,2.24-2.13,3.37-3.18l2.45-2.24a289.8,289.8,0,0,1,86.67-54l1-.4,2.34-.91,2.28-.86L308.89,17A285.29,285.29,0,0,1,348.81,5.79Z"/><path class="cls-5" d="M557.69,532.79a289.14,289.14,0,0,1-39.4,20.39l-2.74,1.14-2.93,1.19c-1.72.68-3.44,1.35-5.17,2-1.2.45-2.4.9-3.61,1.33q-9.88,3.58-20,6.43a284.43,284.43,0,0,1-43.5,8.61c-.9.11-1.81.22-2.72.31l-2.72.29c-1.23.12-2.46.24-3.68.34a5.9,5.9,0,0,1-.59.06l-2.09.16-2.37.18-.21,0c-1.08.07-2.17.15-3.26.21l-1.72.11-1.18,0-.46,0-1.15.06-3,.11H415c-2.83.1-5.67.14-8.51.14h-.38q-4.24,0-8.51-.14h-.17l-3-.11-1.61-.08-2.91-.15-3.15-.21L384,575l-1.9-.15-1.36-.12-3-.28h-.14l-2.72-.29-2.72-.31A291.42,291.42,0,0,1,334,566.64q-10.65-2.76-20.88-6.25l-2.92-1c-1.43-.5-2.86-1-4.28-1.55-1.21-.44-2.41-.9-3.61-1.37l-2.52-1-2.43-1c-1-.41-2-.82-3-1.25l-1.71-.72a285.34,285.34,0,0,1-63.93-37.8l0-.06,47.76-82.72A287.59,287.59,0,0,0,557.69,532.79Z"/><polygon class="cls-6" points="270.15 383.06 158.81 575.91 47.46 383.06 133.09 383.06 158.81 427.59 184.52 383.06 270.15 383.06"/><polygon class="cls-7" points="225.61 383.06 158.81 498.77 92 383.06 133.09 383.06 158.81 427.59 184.52 383.06 225.61 383.06"/><path class="cls-4" d="M29.5,438h0a8.64,8.64,0,0,1-6.11,2.53H22.07A8.62,8.62,0,0,1,16,438h0a2.81,2.81,0,0,0-3.92-.1,2.75,2.75,0,0,0,0,3.91h0a8.88,8.88,0,0,1,2.6,6.27v1.22a8.64,8.64,0,0,1-2.53,6.11h0a2.79,2.79,0,0,0-.1,3.91,2.74,2.74,0,0,0,3.91,0h0a8.84,8.84,0,0,1,6.27-2.6h1.22a8.64,8.64,0,0,1,6.11,2.53h0a2.8,2.8,0,0,0,3.91.1,2.73,2.73,0,0,0,0-3.91h0a8.89,8.89,0,0,1-2.59-6.28v-1.12a8.87,8.87,0,0,1,2.59-6.27h0a2.73,2.73,0,0,0,0-3.91A2.79,2.79,0,0,0,29.5,438Z"/><path class="cls-4" d="M86.4,339h0a5.42,5.42,0,0,1-3.29-2.52l-.42-.71a5.42,5.42,0,0,1-.55-4.11h0A1.77,1.77,0,0,0,81,329.48a1.72,1.72,0,0,0-2.13,1.22h0a5.59,5.59,0,0,1-2.58,3.38l-.66.39a5.47,5.47,0,0,1-4.11.55h0a1.76,1.76,0,0,0-2.16,1.18,1.73,1.73,0,0,0,1.22,2.13h0a5.52,5.52,0,0,1,3.38,2.58l.38.66a5.42,5.42,0,0,1,.56,4.11h0A1.74,1.74,0,0,0,76,347.83a1.7,1.7,0,0,0,2.13-1.21h0a5.59,5.59,0,0,1,2.59-3.39l.61-.35a5.55,5.55,0,0,1,4.22-.56h0a1.73,1.73,0,0,0,2.11-1.25A1.76,1.76,0,0,0,86.4,339Z"/><path class="cls-4" d="M30.76,354.63h0A10.2,10.2,0,0,1,23,353.54l-1.35-.79A10.2,10.2,0,0,1,17,346.5h0A3.32,3.32,0,0,0,13,344.05a3.24,3.24,0,0,0-2.38,4h0a10.47,10.47,0,0,1-1.12,8l-.73,1.24a10.22,10.22,0,0,1-6.25,4.71h0a3.32,3.32,0,0,0-2.45,3.93,3.24,3.24,0,0,0,4,2.38h0a10.56,10.56,0,0,1,8,1.12l1.24.73A10.24,10.24,0,0,1,18,376.34h0a3.32,3.32,0,0,0,3.93,2.46,3.24,3.24,0,0,0,2.38-4h0a10.55,10.55,0,0,1,1.12-8l.67-1.15a10.5,10.5,0,0,1,6.42-4.83h0a3.25,3.25,0,0,0,2.32-4A3.32,3.32,0,0,0,30.76,354.63Z"/><polygon class="cls-5" points="47.46 383.06 158.8 575.91 158.8 427.59 133.09 383.06 47.46 383.06"/></g></g></g></g></g></svg>